<svg width="135" height="50" viewBox="0 0 135 50" fill="none" xmlns="http://www.w3.org/2000/svg">
<path d="M25.273 0C11.3376 0 0 11.2156 0 24.999C0 38.7844 11.3376 50 25.273 50C39.2084 50 50.5441 38.7844 50.5441 24.999C50.5441 11.2136 39.2064 0 25.273 0V0ZM27.7669 47.3907V34.4922V26.3007H34.7597C35.2848 27.6024 36.5687 28.5268 38.0683 28.5268C40.0331 28.5268 41.6324 26.9447 41.6324 25.001C41.6324 23.0573 40.0331 21.4751 38.0683 21.4751C36.5188 21.4751 35.2009 22.4608 34.7117 23.8297H27.7669V16.3829V16.2249L30.0652 14.4057H34.7376C35.2448 15.7409 36.5468 16.695 38.0703 16.695C40.0351 16.695 41.6345 15.1128 41.6345 13.1691C41.6345 11.2255 40.0351 9.64328 38.0703 9.64328C36.5448 9.64328 35.2448 10.5973 34.7376 11.9326H29.6279L28.8472 12.2032L25.7383 14.6644L25.2691 15.6303V16.3829V23.8297H10.2833V16.3829V16.2249L12.5816 14.4057H17.1341C17.6413 15.7409 18.9433 16.695 20.4668 16.695C22.4316 16.695 24.0311 15.1128 24.0311 13.1691C24.0311 11.2255 22.4316 9.64328 20.4668 9.64328C18.9412 9.64328 17.6413 10.5973 17.1341 11.9326H12.1423L11.3615 12.2032L8.25264 14.6644L7.7834 15.6303V16.3829V34.4941V35.2467L8.25264 36.2126L11.3615 38.6738L12.1423 38.9444H17.1341C17.6413 40.2797 18.9433 41.2338 20.4668 41.2338C22.4316 41.2338 24.0311 39.6516 24.0311 37.7079C24.0311 35.7642 22.4316 34.182 20.4668 34.182C18.9412 34.182 17.6413 35.1361 17.1341 36.4714H12.5816L10.2833 34.6522V34.4941V26.3027H25.2691V34.4941V47.5309C12.7134 47.5289 2.49797 37.4235 2.49797 25.003C2.49797 12.5805 12.7133 2.47503 25.271 2.47503C37.8286 2.47503 48.0441 12.5805 48.0441 25.003C48.0461 36.5879 39.1544 46.1562 27.7669 47.3907V47.3907ZM37.006 24.999C37.006 24.4183 37.4833 23.9462 38.0703 23.9462C38.6573 23.9462 39.1345 24.4183 39.1345 24.999C39.1345 25.5797 38.6573 26.0518 38.0703 26.0518C37.4833 26.0538 37.006 25.5797 37.006 24.999ZM37.006 13.1691C37.006 12.5884 37.4833 12.1163 38.0703 12.1163C38.6573 12.1163 39.1345 12.5884 39.1345 13.1691C39.1345 13.7499 38.6573 14.2219 38.0703 14.2219C37.4833 14.2239 37.006 13.7499 37.006 13.1691ZM19.4025 13.1691C19.4025 12.5884 19.8798 12.1163 20.4668 12.1163C21.0538 12.1163 21.5311 12.5884 21.5311 13.1691C21.5311 13.7499 21.0538 14.2219 20.4668 14.2219C19.8798 14.2239 19.4025 13.7499 19.4025 13.1691ZM19.4025 37.704C19.4025 37.1232 19.8798 36.6511 20.4668 36.6511C21.0538 36.6511 21.5311 37.1232 21.5311 37.704C21.5311 38.2847 21.0538 38.7568 20.4668 38.7568C19.8798 38.7568 19.4025 38.2847 19.4025 37.704Z" fill="url(#paint0_linear_1561_16286)"/>
<path d="M64.2309 23.0263C62.6914 23.1981 60.6487 23.1981 58.8576 23.1981C57.38 23.1981 56.3916 22.2816 56.3916 20.8989V14.6828C56.3916 13.3001 57.398 12.3835 58.8576 12.3835C60.6487 12.3835 62.6914 12.3835 64.2309 12.5554L64.0891 14.6531H60.0197C59.5804 14.6531 59.3448 14.8862 59.3448 15.3208V16.6264H63.5081V18.6313H59.3448V20.2629C59.3448 20.6975 59.5804 20.9305 60.0197 20.9305H64.0891L64.2309 23.0263Z" fill="#002E6E"/>
<path d="M72.9951 12.7076L72.8054 14.6196C71.8789 14.6038 70.4492 14.5722 69.1932 14.5722C68.2348 14.5722 67.9213 14.6492 67.9213 15.2398C67.9213 15.7376 68.1889 15.9233 68.9576 16.188L70.9524 16.9485C72.7275 17.6477 73.3245 18.5958 73.3245 20.1662C73.3245 22.5898 72.2722 23.3523 69.0834 23.3523C68.3606 23.3523 66.885 23.3207 65.1099 22.8861L65.2816 20.82C67.2144 20.8674 68.4245 20.897 69.0674 20.897C70.1038 20.897 70.3713 20.7726 70.3713 20.2294C70.3713 19.7178 70.1517 19.5617 69.5067 19.3287L67.3383 18.4734C65.625 17.7899 64.998 16.8734 64.998 15.2873C64.998 12.832 66.1602 12.2256 69.2232 12.2256C70.3234 12.2276 71.7371 12.3046 72.9951 12.7076V12.7076Z" fill="#002E6E"/>
<path d="M82.2752 12.6303L82.0556 14.7755C80.9873 14.7439 80.2964 14.7281 78.8508 14.7281C77.5628 14.7281 77.2014 15.3799 77.2014 17.7897C77.2014 20.1976 77.5628 20.8514 78.8508 20.8514C80.3743 20.8514 81.2708 20.8356 82.2752 20.727L82.5108 22.8563C81.4585 23.2138 80.4841 23.3383 78.8508 23.3383C75.3784 23.3383 74.1064 21.8766 74.1064 17.7897C74.1064 13.7029 75.3784 12.2412 78.8508 12.2412C80.4701 12.2412 81.2389 12.3518 82.2752 12.6303V12.6303Z" fill="#002E6E"/>
<path d="M92.7203 17.7898C92.7203 22.1572 91.4324 23.368 87.8502 23.368C84.268 23.368 82.9961 22.1552 82.9961 17.7898C82.9961 13.4225 84.268 12.2117 87.8502 12.2117C91.4324 12.2117 92.7203 13.4225 92.7203 17.7898ZM86.0911 17.7898C86.0911 20.4308 86.4685 21.132 87.8502 21.132C89.232 21.132 89.6094 20.4327 89.6094 17.7898C89.6094 15.1489 89.232 14.4497 87.8502 14.4497C86.4685 14.4497 86.0911 15.1489 86.0911 17.7898Z" fill="#002E6E"/>
<path d="M96.8819 20.1523C96.8819 20.5868 97.1175 20.8199 97.6207 20.8199H101.297L101.439 23.0105C99.899 23.1962 98.1399 23.1962 96.4586 23.1962C94.8093 23.1962 93.9287 22.2322 93.9287 20.8338V12.427H96.8819V20.1523Z" fill="#002E6E"/>
<path d="M104.859 20.6026L104.216 23.1507H101.199L104.168 13.1894C104.278 12.7233 104.688 12.429 105.159 12.429H107.892C108.364 12.429 108.773 12.7233 108.899 13.1894L111.852 23.1507H108.835L108.19 20.6026H104.859ZM106.95 15.7395C106.872 15.382 106.778 14.9771 106.746 14.6195H106.323C106.259 14.9771 106.181 15.38 106.103 15.7395L105.396 18.4891H107.659L106.95 15.7395Z" fill="#002E6E"/>
<path d="M124.367 17.7899C124.367 22.094 123.095 23.3068 119.513 23.3068C117.784 23.3068 116.37 23.2456 115.068 23.1508V12.429C116.388 12.352 117.754 12.2729 119.513 12.2729C123.095 12.2729 124.367 13.4858 124.367 17.7899V17.7899ZM121.258 17.7899C121.258 15.1489 120.881 14.4497 119.515 14.4497H118.022V21.1004C118.477 21.1162 118.98 21.1162 119.515 21.1162C120.881 21.1162 121.258 20.4328 121.258 17.7899Z" fill="#002E6E"/>
<path d="M135 17.7898C135 22.1572 133.712 23.368 130.13 23.368C126.547 23.368 125.275 22.1552 125.275 17.7898C125.275 13.4225 126.547 12.2117 130.13 12.2117C133.712 12.2117 135 13.4225 135 17.7898ZM128.37 17.7898C128.37 20.4308 128.748 21.132 130.13 21.132C131.511 21.132 131.889 20.4327 131.889 17.7898C131.889 15.1489 131.511 14.4497 130.13 14.4497C128.748 14.4497 128.37 15.1489 128.37 17.7898Z" fill="#002E6E"/>
<path d="M60.1455 29.1517C59.6423 29.1517 59.3907 29.3847 59.3907 29.8193V31.3264H63.3962V33.3471H59.3907V37.6512H56.4375V29.2129C56.4375 27.7986 57.4578 26.8821 58.9354 26.8821C60.6626 26.8821 62.6594 26.8821 64.119 27.0678L63.9773 29.1497H60.1455V29.1517Z" fill="#002E6E"/>
<path d="M74.1253 33.3017C74.1253 36.6418 72.9472 37.8705 69.6965 37.8705C66.2081 37.8705 64.9521 36.6418 64.9521 33.3017V26.9294H67.9054V33.3017C67.9054 35.1347 68.2827 35.6325 69.5387 35.6325C70.7967 35.6325 71.1721 35.1347 71.1721 33.3017V26.9294H74.1253V33.3017Z" fill="#002E6E"/>
<path d="M80.9558 29.1832V37.6532H78.0026V29.1832H74.8916V26.9294H84.0827V29.1832H80.9558Z" fill="#002E6E"/>
<path d="M94.0247 33.3017C94.0247 36.6418 92.8466 37.8705 89.5959 37.8705C86.1075 37.8705 84.8516 36.6418 84.8516 33.3017V26.9294H87.8048V33.3017C87.8048 35.1347 88.1822 35.6325 89.4381 35.6325C90.6961 35.6325 91.0715 35.1347 91.0715 33.3017V26.9294H94.0247V33.3017Z" fill="#002E6E"/>
<path d="M101.546 37.653L100.777 34.4195C100.619 33.7993 100.352 33.6116 99.7567 33.6116H98.4209V37.651H95.5156V26.9273C96.8974 26.787 97.8399 26.7712 99.8985 26.7712C102.932 26.7712 104.22 27.5179 104.22 30.0048C104.22 31.3874 103.7 32.4284 102.083 32.6003V32.6931C102.664 32.7859 103.497 33.1119 103.748 34.3405L104.643 37.651H101.546V37.653ZM99.8326 31.4823C100.949 31.4823 101.246 31.2176 101.246 30.1924C101.246 29.1672 100.949 28.9026 99.8326 28.9026H98.4189V31.4823H99.8326Z" fill="#002E6E"/>
<path d="M114.913 32.2903C114.913 36.6576 113.625 37.8685 110.043 37.8685C106.46 37.8685 105.188 36.6557 105.188 32.2903C105.188 27.925 106.46 26.7122 110.043 26.7122C113.625 26.7122 114.913 27.925 114.913 32.2903ZM108.283 32.2903C108.283 34.9313 108.661 35.6325 110.043 35.6325C111.424 35.6325 111.802 34.9332 111.802 32.2903C111.802 29.6474 111.424 28.9501 110.043 28.9501C108.661 28.9501 108.283 29.6494 108.283 32.2903Z" fill="#002E6E"/>
<defs>
<linearGradient id="paint0_linear_1561_16286" x1="25.2722" y1="49.9995" x2="25.2722" y2="-0.000551343" gradientUnits="userSpaceOnUse">
<stop stop-color="#0086A9"/>
<stop offset="1" stop-color="#29B677"/>
</linearGradient>
</defs>
</svg>
