<?xml version="1.0" encoding="UTF-8" standalone="no"?>
<svg
   width="50.5"
   height="50"
   viewBox="0 0 50.5 50"
   fill="none"
   version="1.1"
   id="svg16"
   sodipodi:docname="logo.svg"
   inkscape:version="1.3.2 (091e20e, 2023-11-25, custom)"
   xmlns:inkscape="http://www.inkscape.org/namespaces/inkscape"
   xmlns:sodipodi="http://sodipodi.sourceforge.net/DTD/sodipodi-0.dtd"
   xmlns="http://www.w3.org/2000/svg"
   xmlns:svg="http://www.w3.org/2000/svg">
  <sodipodi:namedview
     id="namedview16"
     pagecolor="#ffffff"
     bordercolor="#000000"
     borderopacity="0.25"
     inkscape:showpageshadow="2"
     inkscape:pageopacity="0.0"
     inkscape:pagecheckerboard="0"
     inkscape:deskcolor="#d1d1d1"
     inkscape:zoom="5.9606483"
     inkscape:cx="43.283883"
     inkscape:cy="30.449708"
     inkscape:window-width="1680"
     inkscape:window-height="987"
     inkscape:window-x="-8"
     inkscape:window-y="-8"
     inkscape:window-maximized="1"
     inkscape:current-layer="svg16" />
  <path
     d="M 25.273,0 C 11.3376,0 0,11.2156 0,24.999 0,38.7844 11.3376,50 25.273,50 39.2084,50 50.5441,38.7844 50.5441,24.999 50.5441,11.2136 39.2064,0 25.273,0 Z m 2.4939,47.3907 V 34.4922 26.3007 h 6.9928 c 0.5251,1.3017 1.809,2.2261 3.3086,2.2261 1.9648,0 3.5641,-1.5821 3.5641,-3.5258 0,-1.9437 -1.5993,-3.5259 -3.5641,-3.5259 -1.5495,0 -2.8674,0.9857 -3.3566,2.3546 h -6.9448 v -7.4468 -0.158 l 2.2983,-1.8192 h 4.6724 c 0.5072,1.3352 1.8092,2.2893 3.3327,2.2893 1.9648,0 3.5642,-1.5822 3.5642,-3.5259 0,-1.9436 -1.5994,-3.52582 -3.5642,-3.52582 -1.5255,0 -2.8255,0.95402 -3.3327,2.28932 h -5.1097 l -0.7807,0.2706 -3.1089,2.4612 -0.4692,0.9659 v 0.7526 7.4468 H 10.2833 v -7.4468 -0.158 l 2.2983,-1.8192 h 4.5525 c 0.5072,1.3352 1.8092,2.2893 3.3327,2.2893 1.9648,0 3.5643,-1.5822 3.5643,-3.5259 0,-1.9436 -1.5995,-3.52582 -3.5643,-3.52582 -1.5256,0 -2.8255,0.95402 -3.3327,2.28932 h -4.9918 l -0.7808,0.2706 -3.10886,2.4612 -0.46924,0.9659 v 0.7526 18.1112 0.7526 l 0.46924,0.9659 3.10886,2.4612 0.7808,0.2706 h 4.9918 c 0.5072,1.3353 1.8092,2.2894 3.3327,2.2894 1.9648,0 3.5643,-1.5822 3.5643,-3.5259 0,-1.9437 -1.5995,-3.5259 -3.5643,-3.5259 -1.5256,0 -2.8255,0.9541 -3.3327,2.2894 h -4.5525 l -2.2983,-1.8192 v -0.1581 -8.1914 h 14.9858 v 8.1914 13.0368 C 12.7134,47.5289 2.49797,37.4235 2.49797,25.003 2.49797,12.5805 12.7133,2.47503 25.271,2.47503 c 12.5576,0 22.7731,10.10547 22.7731,22.52797 0.002,11.5849 -8.8897,21.1532 -20.2772,22.3877 z M 37.006,24.999 c 0,-0.5807 0.4773,-1.0528 1.0643,-1.0528 0.587,0 1.0642,0.4721 1.0642,1.0528 0,0.5807 -0.4772,1.0528 -1.0642,1.0528 -0.587,0.002 -1.0643,-0.4721 -1.0643,-1.0528 z m 0,-11.8299 c 0,-0.5807 0.4773,-1.0528 1.0643,-1.0528 0.587,0 1.0642,0.4721 1.0642,1.0528 0,0.5808 -0.4772,1.0528 -1.0642,1.0528 -0.587,0.002 -1.0643,-0.472 -1.0643,-1.0528 z m -17.6035,0 c 0,-0.5807 0.4773,-1.0528 1.0643,-1.0528 0.587,0 1.0643,0.4721 1.0643,1.0528 0,0.5808 -0.4773,1.0528 -1.0643,1.0528 -0.587,0.002 -1.0643,-0.472 -1.0643,-1.0528 z m 0,24.5349 c 0,-0.5808 0.4773,-1.0529 1.0643,-1.0529 0.587,0 1.0643,0.4721 1.0643,1.0529 0,0.5807 -0.4773,1.0528 -1.0643,1.0528 -0.587,0 -1.0643,-0.4721 -1.0643,-1.0528 z"
     fill="url(#paint0_linear_1561_16286)"
     id="path1"
     style="fill:url(#paint0_linear_1561_16286)" />
  <defs
     id="defs16">
    <linearGradient
       id="paint0_linear_1561_16286"
       x1="25.2722"
       y1="49.9995"
       x2="25.2722"
       y2="-0.00055134302"
       gradientUnits="userSpaceOnUse">
      <stop
         stop-color="#0086A9"
         id="stop15" />
      <stop
         offset="1"
         stop-color="#29B677"
         id="stop16" />
    </linearGradient>
  </defs>
</svg>
